# xmcd
#
# Track frame offsets:
#	150
#	19675
#	34366
#	47233
#	68092
#	85407
#	98310
#	118818
#	132853
#	149792
#	167436
#	186855
#	206732
#	240547
#	256259
#	271282
#	289870
#	306237
#	322890
#	341617
#
# Disc length: 4790 seconds
#
# Revision: 0
# Processed by: cddbd v1.5.2PL0 Copyright (c) Steve Scherf et al.
# Submitted via: dBpowerAMP V4.0
#
DISCID=2712b414
DTITLE=corey smith - corey smith
DYEAR=1900
DGENRE=Country
TTITLE0=corey smith 1
TTITLE1=corey smith 2
TTITLE2=Track0corey smith
TTITLE3=corey smmith 3
TTITLE4=corey smith  4
TTITLE5=corey smith 5
TTITLE6=corey smith 6
TTITLE7=corey smith 7
TTITLE8=corey smith 8
TTITLE9=corey smith 9
TTITLE10=corey smith 10
TTITLE11=corey 8
TTITLE12=smith
TTITLE13=croey 1
TTITLE14=corey 2
TTITLE15=smith 1
TTITLE16=smith 2
TTITLE17=smith 3
TTITLE18=smith 4
TTITLE19=smith 5
EXTD=cory smith
EXTT0=
EXTT1=
EXTT2=
EXTT3=
EXTT4=
EXTT5=
EXTT6=
EXTT7=
EXTT8=
EXTT9=
EXTT10=
EXTT11=
EXTT12=
EXTT13=
EXTT14=
EXTT15=
EXTT16=
EXTT17=
EXTT18=
EXTT19=
PLAYORDER=
